<svg width="100" height="100" viewBox="0 0 100 100" fill="none" xmlns="http://www.w3.org/2000/svg">
<path d="M12.429 33.0729L35.6994 40.4842L47.2061 32.3433C47.8467 31.8876 48.5651 31.5586 49.2137 31.3504C50.4015 30.9119 51.6699 30.8273 52.8842 31.1056C53.9241 31.3464 54.8972 31.8522 55.7371 32.6484L69.4553 45.4242C71.1397 46.9829 71.9032 49.4461 71.4876 51.8862L75.4071 53.136L85.3197 39.673C85.7364 39.1464 86.3697 38.8883 86.9803 39.0379L91.0157 39.9847C92.0556 40.2256 92.5851 41.4597 92.1014 42.4908L85.6694 56.4025L87.4237 56.9608C90.3057 57.8571 92.6502 61.0917 92.2426 64.1592L11.4126 37.0453L13.8555 44.2841L84.9522 68.4927C84.7188 68.6273 84.4871 68.7653 84.2572 68.9069L84.1783 68.9547C83.3961 69.4326 82.9314 69.7029 82.404 69.8759C81.9422 70.0301 81.329 70.1369 80.378 70.0106C79.4425 69.8863 78.8847 69.6239 78.4787 69.3578C78.021 69.0539 77.643 68.6717 77.0101 68.0023L76.9548 67.9436C76.374 67.3325 75.5558 66.4673 74.4599 65.7467C73.1326 64.8868 71.6441 64.3494 70.0951 64.1707C68.32 63.9349 66.8247 64.1093 65.479 64.5569C64.2392 64.9672 63.2301 65.5862 62.513 66.0249L62.4407 66.0701C61.6585 66.548 61.1969 66.8187 60.6727 66.9921C60.0187 67.1949 59.3346 67.2407 58.6688 67.1263C57.7333 67.0021 57.1754 66.7397 56.7726 66.4739C56.3144 66.1735 55.94 65.7883 55.3097 65.1227L55.2487 65.0598C54.5044 64.2284 53.6735 63.4934 52.7719 62.8687C51.4487 62.0071 49.9632 61.4689 48.4168 61.2906C46.8775 61.0586 45.3029 61.1903 43.8007 61.6768C42.564 62.0875 41.5518 62.7061 40.8378 63.1452L40.7625 63.1899C39.9802 63.6679 39.5187 63.9386 38.9975 64.1124C38.3435 64.3149 37.6595 64.3607 36.9936 64.2466C36.0581 64.1223 35.5003 63.86 35.0943 63.5938C34.6361 63.2933 34.2617 62.9082 33.6345 62.2429L33.5735 62.1801C32.8283 61.3484 31.9963 60.6131 31.0936 59.9886C29.7713 59.1276 28.2869 58.5895 26.7416 58.4109C24.9666 58.1751 23.4712 58.3495 22.1256 58.7971C20.8826 59.207 19.8727 59.8327 19.1555 60.2714L19.0869 60.3136L18.6687 60.5661C15.7734 56.5173 13.389 52.0635 11.5766 47.3186L9.91972 42.9431L9.92591 42.9439L9.91135 42.9112L7.82078 36.3422C7.76219 36.1719 7.72969 35.9919 7.72452 35.8091L7.71523 35.8079C7.72392 35.6815 7.73752 35.5554 7.75598 35.4299C8.06402 33.3487 9.73312 32.6497 11.8458 32.9304C12.01 32.9522 12.1679 32.9971 12.3502 33.0487L12.429 33.0729ZM53.5513 39.1353C54.5307 38.1701 54.5328 36.4932 53.5513 35.5755L53.0173 35.087C52.0388 34.3135 50.6093 34.5377 50.0005 34.6348C49.9588 34.6406 49.917 34.6464 49.8753 34.6524C49.5261 34.7777 49.192 34.9494 48.8805 35.1638L39.6039 41.7286L46.6811 43.9832L53.5513 39.1353ZM66.9029 47.7891L60.3643 41.7177C59.9579 41.325 59.4604 41.0581 58.9223 40.9442C58.0993 40.7322 57.1298 40.9114 56.3324 41.4558L50.8701 45.3168L67.9733 50.7655C68.0305 50.2077 67.963 49.646 67.7767 49.1279C67.5904 48.6099 67.2907 48.1507 66.9029 47.7891Z" fill="#C5B14E"/>
<path d="M90.7378 66.816C89.8798 67.304 89.1916 67.956 88.5064 68.608C87.1236 69.916 85.7407 71.228 82.975 71.228C80.2281 71.228 78.8515 69.924 77.475 68.62C76.0953 67.312 74.7124 66 71.9436 66C69.1967 66 67.8233 67.308 66.4467 68.612C65.0733 69.92 63.6967 71.228 60.9467 71.228C58.1998 71.228 56.8264 69.92 55.4498 68.612C54.0764 67.308 52.703 66 49.953 66C47.203 66 45.8296 67.308 44.453 68.612L43.9375 69.1C42.715 70.228 41.3604 71.228 38.9561 71.228C36.2093 71.228 34.8327 69.92 33.4561 68.612C32.0858 67.308 30.7124 66 27.9656 66C25.2753 66 23.9018 67.248 22.5598 68.528L22.4655 68.62C21.0953 69.924 19.7313 71.228 16.997 71.228C14.2501 71.228 12.8767 69.92 11.5001 68.612C10.1236 67.308 8.75012 66 6.00012 66V94H93.9687L94.0001 66C93.5695 66 93.1767 66.032 92.8058 66.092C92.0922 66.1995 91.3951 66.4422 90.7378 66.812V66.816Z" fill="#C5B14E"/>
</svg>
