<svg width="100" height="100" viewBox="0 0 100 100" fill="none" xmlns="http://www.w3.org/2000/svg">
<path d="M49.1803 8.2361C50.6816 3.83865 51.9126 0.239973 50.5915 0.00629199C47.6319 -0.333607 36.2226 13.1774 34.507 21.2075C33.5633 25.2013 33.9065 29.4076 35.7937 33.4863C36.0425 34.3276 36.6087 35.1731 37.1663 35.9889L37.5094 36.5029L37.9984 37.2252C38.4916 37.9773 38.9935 38.7293 39.7398 39.4346L44.5008 44.2781C47.0743 46.9973 48.8758 50.0139 49.6908 53.2855C50.8917 56.5145 50.806 59.956 50.5915 63.44C50.317 66.8389 48.3868 71.8949 46.7226 76.2584C44.9683 80.8555 43.5057 84.6794 44.5866 84.981C46.9457 85.5759 59.1699 72.0224 62.1723 64.3322C63.8451 60.5083 64.317 56.4295 63.8022 52.3083C63.3733 48.187 61.2716 43.9807 57.7116 40.1994L52.779 35.3983C51.4064 34.0812 50.2912 32.5941 49.3476 31.1071C47.203 28.1329 46.6025 24.8189 46.1307 21.4199C45.8476 17.9785 47.6577 12.693 49.1803 8.2361Z" fill="#C5B14E"/>
<path d="M80.6656 40.6312C82.1969 39.0062 88.0094 46.2875 89.8531 53.5375C90.7281 57.1625 90.7281 61.0375 90.2281 64.8812C89.5719 68.6937 88.0094 72.2562 86.0406 75.4437C82.0406 81.85 76.1344 86.3812 69.8844 89.4437C63.5719 92.3812 56.7594 93.7875 50.0094 93.8187C43.2281 93.7562 36.4469 92.35 30.1344 89.4437C23.8844 86.3812 17.9781 81.85 13.9781 75.4437C12.0094 72.2562 10.4469 68.6937 9.7906 64.8812C9.19685 61.0687 9.19685 57.1937 10.0719 53.5687C11.9156 46.2875 17.7281 39.0375 19.2594 40.6625C20.05 41.4812 19.2875 43.4125 18.3094 45.8812C17.3187 48.3937 16.1031 51.4656 16.0719 54.5062C16.0094 60.1937 18.2594 65.1937 21.6656 69.0687C25.0719 72.975 29.6344 75.8187 34.5094 77.7562C39.4156 79.5375 44.6656 80.5062 49.9469 80.5062C55.2281 80.5062 60.4781 79.5687 65.4156 77.725C70.2906 75.8187 74.8531 72.975 78.2594 69.0375C81.6656 65.1312 83.9156 60.1312 83.8531 54.475C83.8219 51.4562 82.6125 48.4031 81.6218 45.8937C80.6406 43.4125 79.8719 41.4687 80.6656 40.6312Z" fill="#C5B14E"/>
<path d="M70.4239 14.0073C71.2657 14.1642 70.4805 16.5745 69.5149 19.5197C68.5387 22.5112 67.3786 26.059 67.559 28.3766C67.8773 30.6586 68.2664 32.8693 69.6104 34.866C70.2117 35.8644 70.9191 36.8627 71.8034 37.7541L74.9866 40.9632C77.2503 43.4947 78.6297 46.3115 78.8773 49.0927C79.1956 51.8739 78.9127 54.5837 77.8162 57.1509C75.9062 62.321 68.0542 71.4133 66.5333 70.9854C65.84 70.7644 66.7809 68.1722 67.9127 65.0701C68.9738 62.157 70.2011 58.7875 70.3886 56.5056C70.5301 54.1523 70.5654 51.8703 69.8227 49.6953C69.2921 47.5203 68.1603 45.4879 66.4979 43.6338L63.4208 40.3891C63.0157 39.9801 62.6617 39.5227 62.3667 39.027C62.24 38.8238 62.1079 38.6241 61.9706 38.428C61.8835 38.2905 61.7951 38.1538 61.7053 38.018C61.3552 37.4867 61.0156 36.9626 60.8741 36.3956C59.6716 33.6501 59.424 30.8333 60.0606 28.1591C61.1925 22.8464 68.514 13.7934 70.4239 14.0073ZM29.7949 19.5197C30.7605 16.5709 31.5457 14.1642 30.7039 14.0073C28.8293 13.7934 21.5078 22.85 20.3406 28.1627C19.7039 30.8369 19.9515 33.6537 21.1541 36.3992C21.2955 36.9661 21.6351 37.4867 21.9852 38.018L22.2505 38.428C22.392 38.6241 22.5193 38.8238 22.6467 39.027C22.9508 39.4906 23.255 39.9684 23.7007 40.3927L26.7778 43.6373C28.4402 45.4914 29.572 47.5238 30.1026 49.6988C30.8453 51.8739 30.81 54.1558 30.6685 56.5091C30.481 58.7875 29.2537 62.157 28.1926 65.0701C27.0608 68.1722 26.12 70.7644 26.8132 70.9854C28.3341 71.4133 36.1862 62.321 38.0961 57.1509C39.1926 54.5837 39.4755 51.8739 39.1572 49.0927C38.9096 46.3115 37.5302 43.4947 35.2665 40.9632L32.0833 37.7541C31.199 36.8627 30.4916 35.8644 29.8904 34.866C28.5463 32.8693 28.1572 30.6586 27.8389 28.3766C27.6621 26.059 28.8187 22.5112 29.7949 19.5197Z" fill="#C5B14E"/>
</svg>
