<svg width="100" height="100" viewBox="0 0 100 100" fill="none" xmlns="http://www.w3.org/2000/svg">
<path d="M49.1313 54.92L47.2704 56.775C46.4628 57.58 46.0415 58.63 46.0415 59.75C46.0415 60.87 46.498 61.955 47.2704 62.725L49.1313 64.58C49.2639 64.7148 49.4224 64.8215 49.5974 64.8937C49.7724 64.9659 49.9602 65.002 50.1496 65H51.6594C52.4318 65 53.0638 65.63 53.0638 66.4V74.065C53.0638 74.835 53.6959 75.465 54.4683 75.465H55.9781C56.1675 75.467 56.3553 75.4309 56.5303 75.3587C56.7053 75.2865 56.8638 75.1798 56.9964 75.045L58.4359 73.61C59.4893 72.56 60.0862 71.125 60.0862 69.62V65.28C60.0862 65.07 60.1213 64.86 60.2266 64.65L63.4218 58.245C63.5271 58.035 63.5622 57.825 63.5622 57.615V55.865C63.5622 55.095 64.1943 54.465 64.9667 54.465H65.6338C66.4063 54.465 67.0383 55.095 67.0383 55.865V56.53C67.0383 57.3 67.6703 57.93 68.4428 57.93H69.1099C69.8824 57.93 70.5144 57.3 70.5144 56.53V55.865C70.5144 55.095 71.1464 54.465 71.9188 54.465H72.586C73.3584 54.465 73.9904 55.095 73.9904 55.865V56.53C73.9904 57.3 74.6224 57.93 75.3949 57.93H79.3274C79.8892 57.93 80.4159 57.58 80.6265 57.055L83.7164 49.39C83.8025 49.1777 83.8351 48.9476 83.8113 48.7198C83.7875 48.492 83.7079 48.2736 83.5797 48.0836C83.4515 47.8935 83.2784 47.7378 83.0758 47.6299C82.8731 47.5221 82.647 47.4655 82.4172 47.465C81.6448 47.465 81.0128 46.835 81.0128 46.065V41.9C81.0128 41.13 81.6448 40.5 82.4172 40.5H83.0844C83.8568 40.5 84.4888 41.13 84.4888 41.9V42.25C84.4888 43.23 85.2613 44 86.2444 44C87.2275 44 88 43.23 88 42.25V35.46C88 32.45 85.5422 30.035 82.5577 30.035H82.4172C81.6448 30.035 81.0128 30.665 81.0128 31.435V32.1C81.0128 32.87 80.3808 33.5 79.6083 33.5H75.43C74.6575 33.5 74.0255 32.87 74.0255 32.1C74.0255 30.945 73.0775 30 71.9188 30H70.5144C68.5832 30 67.0032 31.575 67.0032 33.5V33.605C67.0032 33.99 66.8276 34.375 66.5467 34.655L60.4022 40.15C60.1564 40.395 59.8053 40.5 59.4542 40.5H54.3981C53.6256 40.5 52.9936 41.13 52.9936 41.9V42.565C52.9936 43.335 52.3616 43.965 51.5891 43.965H50.922C50.1496 43.965 49.5176 44.595 49.5176 45.365V49.53C49.5176 50.3 50.1496 50.93 50.922 50.93H51.5891C52.3616 50.93 52.9936 51.56 52.9936 52.33V52.995C52.9936 53.765 52.3616 54.395 51.5891 54.395H50.0793L49.981 54.437C49.6931 54.5665 49.3841 54.6995 49.1313 54.92ZM33.7524 79C34.7355 79 35.508 78.23 35.508 77.25V75.675C35.508 73.4 36.772 71.37 38.8085 70.355L40.9503 69.27C41.8983 68.78 42.5303 67.8 42.5303 66.75C42.5303 65.665 41.9334 64.685 40.9503 64.23L36.8422 62.2C35.9644 61.745 34.9813 61.535 33.9982 61.535H32.4533C32.3101 61.5357 32.1681 61.5083 32.0356 61.4542C31.903 61.4002 31.7824 61.3206 31.6808 61.22L25.2905 54.85C25.1896 54.7487 25.1097 54.6285 25.0555 54.4964C25.0013 54.3643 24.9737 54.2228 24.9745 54.08V52.12C24.9745 51.525 25.466 51.035 26.0629 51.035H27.3972C27.9941 51.035 28.4856 51.525 28.4856 52.12V52.785C28.4856 53.765 29.2581 54.535 30.2412 54.535C31.2244 54.535 31.9968 53.765 31.9968 52.785V52.12C31.9968 51.525 32.4884 51.035 33.0853 51.035C34.6302 51.035 36.14 50.405 37.2285 49.32L38.2467 48.305C38.668 47.885 38.668 47.185 38.2467 46.765L35.824 44.35C35.7231 44.2487 35.6432 44.1285 35.589 43.9964C35.5348 43.8643 35.5073 43.7228 35.508 43.58V42.285C35.508 41.305 34.7355 40.535 33.7524 40.535C32.7693 40.535 31.9968 41.305 31.9968 42.285C31.9968 43.265 31.2244 44.035 30.2412 44.035C29.2581 44.035 28.4856 43.265 28.4856 42.285V41.62C28.4856 41.025 28.9772 40.535 29.5741 40.535C30.2061 40.535 30.6977 40.01 30.6626 39.415L30.5923 38.19C30.5572 37.56 31.0488 37.07 31.6808 37.07H34.4195C35.0164 37.07 35.508 36.58 35.508 35.985V35.32C35.508 34.34 36.2804 33.57 37.2636 33.57C38.2467 33.57 39.0192 34.34 39.0192 35.32V42.32C39.0192 43.3 39.7916 44.07 40.7747 44.07C41.7579 44.07 42.5303 43.3 42.5303 42.32V41.025C42.5303 40.745 42.6357 40.465 42.8463 40.255L44.2859 38.82C45.4095 37.7 46.0415 36.195 46.0415 34.62C46.0415 32.1 44.005 30.07 41.477 30.07H35.8591C33.4013 30.07 31.0488 31.085 29.3634 32.87L27.1865 35.215C26.0981 36.405 24.5531 37.07 22.938 37.07H22.5869C21.99 37.07 21.4984 36.58 21.4984 35.985C21.4984 34.655 20.41 33.57 19.0757 33.57H16.8988C15.5645 33.57 14.4761 34.655 14.4761 35.985V37.28C14.4761 39.38 13.6334 41.41 12.1587 42.88L11.316 43.72C11.2151 43.8213 11.1353 43.9415 11.081 44.0736C11.0268 44.2057 10.9993 44.3472 11 44.49V44.945C11 45.925 12.1587 46.38 12.8609 45.715L17.285 41.305C17.7415 40.85 18.3735 40.57 19.0406 40.57C19.7358 40.57 19.4619 40.857 19.0266 41.3225C18.6017 41.7705 18.0224 42.383 18.0224 43.055V51.315C18.0224 52.7465 20.0413 54.1255 21.7934 55.326C22.6185 55.886 23.3804 56.411 23.8509 56.88L28.2399 61.255C28.4505 61.465 28.5559 61.745 28.5559 62.025V65.945C28.5559 67.625 29.223 69.27 30.4168 70.46L31.751 71.79C31.9617 72 32.067 72.28 32.067 72.56V77.355C31.9968 78.23 32.8044 79 33.7524 79Z" fill="#C5B14E"/>
<path d="M70.425 66.6322C69.5225 65.4871 69 64.0557 69 62.5765V61.5746C69 60.7634 69.665 60.0954 70.4725 60H72.2775C73.085 60 73.75 60.668 73.75 61.4791C73.75 62.8628 75.4125 63.4831 76.315 62.4811L78.0725 60.5249C78.3575 60.2386 78.7375 60.0477 79.165 60.0477H83.25C85.8625 60.0477 88 62.1948 88 64.8191V68.827C88 69.7813 87.145 70.4493 86.2425 70.2585L85.1975 70.0199C84.6462 69.8964 84.153 69.5883 83.7991 69.1461C83.4452 68.7039 83.2516 68.1539 83.25 67.5865C83.25 66.1074 81.9675 64.9622 80.495 65.1054L79.7825 65.2008C79.07 65.2962 78.5 65.9165 78.5 66.6799V68.4453C78.5 69.1133 78.025 69.7336 77.36 69.8767C75.175 70.4016 72.8475 69.5905 71.4225 67.8251L70.425 66.6322ZM73.75 81.6143C73.75 82.9503 74.795 84 76.125 84H85.625C86.955 84 88 82.9503 88 81.6143V77.0815C88 76.3729 87.7198 75.6932 87.2209 75.1921C86.7221 74.6911 86.0455 74.4095 85.34 74.4095H77.6925C75.5075 74.4095 73.75 76.2227 73.75 78.4175V81.6143Z" fill="#C5B14E"/>
<path d="M7.875 21.375L28.0312 15.625L49.9375 21.875L71.7812 15.625L92.1562 21.375C93.0938 21.625 93.75 22.4688 93.75 23.4375V91.625C93.75 93 92.4375 94.0312 91.0938 93.6875L71.8125 87.5094L49.9375 93.75L28.0312 87.4688L8.90625 93.6875C8.59201 93.7661 8.26401 93.7723 7.94704 93.7055C7.63006 93.6388 7.3324 93.5009 7.07655 93.3022C6.8207 93.1036 6.61334 92.8493 6.47015 92.5588C6.32696 92.2682 6.25168 91.9489 6.25 91.625V23.4375C6.25 22.4688 6.9375 21.625 7.875 21.375ZM49.9375 87.4719L71.8375 81.2531V81.3312L86.3438 85.75C87.7188 86.125 89.0625 85.0938 89.0625 83.6875V28.125C89.0625 27.1562 88.4062 26.3125 87.4688 26.0625L71.7812 21.9375V21.9L49.9375 28.0437V28.0531L28.0312 21.9125V21.9L12.3531 26.0625C11.8957 26.1811 11.4905 26.4478 11.2005 26.8209C10.9105 27.1939 10.7521 27.6525 10.75 28.125V83.625C10.75 85.0312 12.1 86.0625 13.4844 85.6875L28.0312 81.2812L49.9375 87.4812V87.4719Z" fill="#C5B14E"/>
</svg>
