<svg width="100" height="100" viewBox="0 0 100 100" fill="none" xmlns="http://www.w3.org/2000/svg">
<path d="M94.425 42.2922V38.2719H80.7625V30.9563H76.3672V25.0969L67.5781 22.1672V6.05469H64.6484V22.1687L55.8594 25.0984V30.9578H51.4641V19.7031L36.8172 3.125L22.1687 19.7016V30.8375L3.125 35.1875V68.6688C6.2547 69.612 8.99216 71.5487 10.9234 74.1859H10.9297C17.575 74.1859 22.9625 79.7 22.9625 86.5062C22.9662 88.3456 22.5601 90.1627 21.7736 91.8255C20.9871 93.4882 19.84 94.9549 18.4156 96.1188C18.4219 95.9969 18.45 95.8844 18.45 95.7609C18.45 91.6906 15.3297 88.3453 11.4031 88.0953C10.6602 86.4599 9.50802 85.0437 8.0579 83.9836C6.60779 82.9235 4.90876 82.2554 3.125 82.0437V85.1531C6.30156 85.6859 8.79687 88.2438 9.30625 91.4891C9.82247 91.2794 10.3741 91.1707 10.9312 91.1687C13.4234 91.1687 15.4437 93.2281 15.4437 95.7641C15.4437 96.1484 15.3844 96.5141 15.2969 96.875H21.9984C22.6438 96.1609 23.2297 95.3906 23.7312 94.5563C25.6 94.9172 27.3438 95.7312 28.9109 96.875H33.4375C31.0891 94.2828 28.2109 92.4703 25.0812 91.675C25.4562 90.6016 25.725 89.4797 25.8578 88.3141C26.7266 88.5328 27.525 88.9297 28.2016 89.4844C29.4016 86.8641 31.9844 85.0406 34.9969 85.0406C38.7422 85.0406 41.825 87.8516 42.3969 91.5203C42.9123 91.3096 43.4635 91.2003 44.0203 91.1984C46.5141 91.1984 48.5344 93.2672 48.5344 95.8187C48.5344 95.875 48.5203 95.9297 48.5187 95.9859C48.3187 96.2703 48.1531 96.5781 47.9688 96.8734H51.6312C54.4453 93.3734 58.7437 91.125 63.5766 91.125C68.4094 91.125 72.7078 93.375 75.5219 96.875H79.1922C78.9609 96.4922 78.7328 96.1062 78.4734 95.7422H90.9531C93.4078 95.7422 95.5703 94.4813 96.875 92.5656V84.1406C95.5703 82.2234 93.4078 80.9641 90.9531 80.9641C90.0328 80.9641 89.1609 81.1562 88.3547 81.4766C88.0889 79.7426 87.4569 78.0851 86.5008 76.6144C85.5446 75.1437 84.2863 73.8935 82.8094 72.9469L83.7703 72.1687C86.3156 70.1047 89.3219 69.0125 92.4625 69.0125C93.9625 69.0125 95.4516 69.2656 96.8734 69.7516V66.5687C95.4672 66.1687 93.9953 65.9297 92.4625 65.9297C88.4453 65.9297 84.8094 67.3937 81.9031 69.7484C80.2715 66.2206 77.7203 63.1971 74.5172 60.9953C75.5016 57.925 78.2969 55.7 81.6234 55.7C84.6375 55.7 87.2219 57.5234 88.4188 60.1453C89.4686 59.2696 90.7907 58.7867 92.1578 58.7797C94.0781 58.7797 95.7719 59.7234 96.875 61.1594V42.2922H94.425ZM68.3109 50C68.3118 49.6115 68.4664 49.2392 68.7411 48.9646C69.0158 48.6899 69.3881 48.5352 69.7766 48.5344H74.1719C74.5603 48.5352 74.9326 48.6899 75.2073 48.9646C75.482 49.2392 75.6367 49.6115 75.6375 50V52.9297C75.6363 53.318 75.4815 53.6901 75.2069 53.9647C74.9323 54.2393 74.5602 54.3941 74.1719 54.3953H69.7766C69.3882 54.3941 69.0162 54.2393 68.7416 53.9647C68.467 53.6901 68.3122 53.318 68.3109 52.9297V50ZM56.5922 38.2812C56.593 37.8928 56.7477 37.5205 57.0224 37.2458C57.2971 36.9711 57.6694 36.8164 58.0578 36.8156H62.4531C62.8416 36.8164 63.2139 36.9711 63.4886 37.2458C63.7632 37.5205 63.9179 37.8928 63.9188 38.2812V41.2109C63.9175 41.5993 63.7627 41.9713 63.4881 42.2459C63.2135 42.5205 62.8415 42.6753 62.4531 42.6766H58.0578C57.6695 42.6753 57.2974 42.5205 57.0228 42.2459C56.7482 41.9713 56.5934 41.5993 56.5922 41.2109V38.2812ZM26.5625 23.6328C26.5633 23.2444 26.718 22.872 26.9927 22.5974C27.2674 22.3227 27.6397 22.168 28.0281 22.1672H45.6063C45.9947 22.168 46.367 22.3227 46.6417 22.5974C46.9164 22.872 47.071 23.2444 47.0719 23.6328V26.5625C47.0706 26.9508 46.9158 27.3229 46.6412 27.5975C46.3666 27.8721 45.9946 28.0269 45.6063 28.0281H28.0281C27.6398 28.0269 27.2677 27.8721 26.9931 27.5975C26.7185 27.3229 26.5637 26.9508 26.5625 26.5625V23.6328ZM26.5625 35.3516C26.5633 34.9631 26.718 34.5908 26.9927 34.3161C27.2674 34.0414 27.6397 33.8868 28.0281 33.8859H45.6063C45.9947 33.8868 46.367 34.0414 46.6417 34.3161C46.9164 34.5908 47.071 34.9631 47.0719 35.3516V38.2812C47.0706 38.6696 46.9158 39.0416 46.6412 39.3162C46.3666 39.5908 45.9946 39.7456 45.6063 39.7469H28.0281C27.6398 39.7456 27.2677 39.5908 26.9931 39.3162C26.7185 39.0416 26.5637 38.6696 26.5625 38.2812V35.3516ZM26.5625 47.0703C26.5633 46.6819 26.718 46.3096 26.9927 46.0349C27.2674 45.7602 27.6397 45.6055 28.0281 45.6047H45.6063C45.9947 45.6055 46.367 45.7602 46.6417 46.0349C46.9164 46.3096 47.071 46.6819 47.0719 47.0703V50C47.0706 50.3883 46.9158 50.7604 46.6412 51.035C46.3666 51.3096 45.9946 51.4644 45.6063 51.4656H28.0281C27.6398 51.4644 27.2677 51.3096 26.9931 51.035C26.7185 50.7604 26.5637 50.3883 26.5625 50V47.0703ZM9.71719 47.0703C9.71801 46.6819 9.87269 46.3096 10.1474 46.0349C10.4221 45.7602 10.7944 45.6055 11.1828 45.6047H15.5781C15.9666 45.6055 16.3389 45.7602 16.6136 46.0349C16.8882 46.3096 17.0429 46.6819 17.0437 47.0703V50C17.0425 50.3883 16.8877 50.7604 16.6131 51.035C16.3385 51.3096 15.9665 51.4644 15.5781 51.4656H11.1813C10.7929 51.4644 10.4209 51.3096 10.1463 51.035C9.87167 50.7604 9.71686 50.3883 9.71562 50L9.71719 47.0703ZM9.71719 58.7891C9.71801 58.4006 9.87269 58.0283 10.1474 57.7536C10.4221 57.4789 10.7944 57.3243 11.1828 57.3234H15.5781C15.9666 57.3243 16.3389 57.4789 16.6136 57.7536C16.8882 58.0283 17.0429 58.4006 17.0437 58.7891V61.7188C17.0425 62.1071 16.8877 62.4791 16.6131 62.7537C16.3385 63.0283 15.9665 63.1831 15.5781 63.1844H11.1813C10.7929 63.1831 10.4209 63.0283 10.1463 62.7537C9.87167 62.4791 9.71686 62.1071 9.71562 61.7188L9.71719 58.7891ZM25.4438 82.5219C25.4438 82.5219 23.4672 72.7062 12.9719 71.2609C13.8828 69 15.9094 67.4062 18.3016 67.4062C19.05 67.4062 19.7578 67.575 20.4125 67.8578C21.1578 62.7219 25.1641 58.7844 30.0328 58.7844C33.9484 58.7844 37.3078 61.3391 38.8656 65.0062C40.2 63.8281 41.8766 63.0953 43.7219 63.0953C44.9872 63.1015 46.2285 63.4416 47.3203 64.0813C44.395 67.2346 42.4744 71.1873 41.8031 75.4359C40.3447 74.8483 38.788 74.5429 37.2156 74.5359C32.7688 74.5375 27.7938 76.9641 25.4438 82.5219ZM85.3844 81.9641L85.9734 85.7344L89.4453 84.35C89.924 84.1539 90.4358 84.051 90.9531 84.0469C93.2734 84.0469 95.1656 85.9766 95.1656 88.3516C95.1656 90.7266 93.2734 92.6578 90.9531 92.6578H75.6703C72.4078 89.7766 68.1531 88.0437 63.5781 88.0437C60.3937 88.0437 57.3625 88.8844 54.7125 90.3625C53.6362 89.1204 53.0452 87.5311 53.0484 85.8875C53.0484 82.1531 56.0156 79.1172 59.6656 79.1172C61.5281 79.1172 62.9234 79.9406 63.7656 80.6297L66.7453 83.0688L68.3672 79.5297C69.85 76.2875 73.0484 74.1922 76.5172 74.1922C80.9531 74.1906 84.6813 77.4594 85.3844 81.9641ZM79.1875 71.0687L79.3719 71.4688C78.4388 71.2311 77.48 71.1093 76.5172 71.1062C71.6953 71.1062 67.5625 74.0266 65.6438 78.2188C63.9969 76.8734 61.9375 76.0344 59.6656 76.0344C54.3531 76.0344 50.0391 80.4484 50.0391 85.8891C50.0391 88.2328 50.8531 90.3703 52.1891 92.0609C51.7781 92.3875 51.3812 92.7312 51 93.0922C49.9781 90.3406 47.4969 88.325 44.5016 88.1312C42.8125 84.4281 39.175 81.9563 34.9984 81.9563C32.3016 81.9563 29.7531 83.0437 27.8344 84.8781C28.9578 80.7062 32.7312 77.6219 37.2172 77.6219C38.3812 77.6219 39.5594 77.8562 40.7188 78.3141L44.1781 79.6875L44.7719 75.9313C46.1906 66.9375 53.7328 60.4078 62.7062 60.4078C69.7234 60.4078 76.1937 64.5938 79.1875 71.0687ZM83.6922 52.8344V48.4859C83.6922 47.7078 84.2203 47.0703 84.8641 47.0703H85.45C86.0938 47.0703 86.6219 47.7078 86.6219 48.4859V53.9359C85.7066 53.4229 84.7188 53.0515 83.6922 52.8344ZM92.1578 55.6969C91.7719 55.6969 91.3938 55.7391 91.0156 55.7906V48.4875C91.0156 47.7094 91.5437 47.0719 92.1875 47.0719H92.7734C93.4172 47.0719 93.9453 47.7094 93.9453 48.4875V55.9047C93.3585 55.7726 92.7593 55.703 92.1578 55.6969Z" fill="#C5B14E"/>
</svg>
