<svg width="16" height="16" viewBox="0 0 16 16" fill="none" xmlns="http://www.w3.org/2000/svg">
<path d="M6.47781 2.334L11.6598 7.65C11.7508 7.74338 11.8018 7.86861 11.8018 7.999C11.8018 8.12939 11.7508 8.25463 11.6598 8.348L6.47781 13.666C6.43541 13.7095 6.38472 13.7442 6.32873 13.7678C6.27274 13.7914 6.21258 13.8036 6.15181 13.8036C6.09103 13.8036 6.03087 13.7914 5.97488 13.7678C5.91889 13.7442 5.8682 13.7095 5.82581 13.666C5.73858 13.5767 5.68975 13.4568 5.68975 13.332C5.68975 13.2072 5.73858 13.0873 5.82581 12.998L10.6988 7.999L5.82581 3.001C5.73888 2.91175 5.69024 2.79209 5.69024 2.6675C5.69024 2.54292 5.73888 2.42325 5.82581 2.334C5.8682 2.29046 5.91889 2.25585 5.97488 2.23222C6.03087 2.20859 6.09103 2.19641 6.15181 2.19641C6.21258 2.19641 6.27274 2.20859 6.32873 2.23222C6.38472 2.25585 6.43541 2.29046 6.47781 2.334Z" fill="#573104"/>
</svg>
