<svg width="24" height="24" viewBox="0 0 24 24" fill="none" xmlns="http://www.w3.org/2000/svg">
<path fill-rule="evenodd" clip-rule="evenodd" d="M19.0588 4.42678C19.1564 4.32915 19.1564 4.17085 19.0588 4.07322C18.9612 3.97559 18.8029 3.97559 18.7052 4.07322L11.5503 11.2282L4.42678 4.10474C4.32915 4.00711 4.17085 4.00711 4.07322 4.10474C3.97559 4.20237 3.97559 4.36066 4.07322 4.45829L11.1967 11.5818L4.42676 18.3517C4.32913 18.4493 4.32913 18.6076 4.42676 18.7053C4.52439 18.8029 4.68268 18.8029 4.78032 18.7053L11.5503 11.9353L18.7053 19.0903C18.8029 19.188 18.9612 19.188 19.0588 19.0903C19.1564 18.9927 19.1564 18.8344 19.0588 18.7368L11.9038 11.5818L19.0588 4.42678Z" fill="#C5B14E"/>
</svg>
