<svg width="96" height="96" viewBox="0 0 96 96" fill="none" xmlns="http://www.w3.org/2000/svg">
<path d="M17.1485 75.4802C9.18554 67.5174 4.40816 50.7955 6.79778 49.9992C9.98291 63.536 25.9076 77.8691 38.6492 79.4617C53.8466 81.3612 73.6858 74.4185 79.2598 70.7026C77.6672 71.7643 67.9516 77.8691 60.9443 81.0542C52.1852 85.0356 40.2408 85.1241 36.2594 84.2393C29.0929 82.6468 25.1102 81.0542 17.1485 75.4802Z" fill="#C5B14E"/>
<path d="M20.3317 17.3517C21.9243 16.0245 25.2687 13.3703 25.9057 13.3703C23.5169 15.7591 19.5375 21.3331 17.9429 23.7219C15.9968 26.6373 14.7599 32.481 14.7606 35.6661L13.9615 50.7955L13.9636 49.9992C12.7652 49.9992 12.0403 48.6255 11.6466 46.9636C12.1012 50.8503 13.0342 55.6327 13.9643 57.962C11.5754 52.3881 11.5748 53.9806 10.7785 49.2029C9.1853 51.5918 9.50637 37.5761 9.98231 35.6661C10.7786 32.481 13.9615 25.3145 15.5541 22.9256C17.9429 19.7405 19.8009 17.8825 20.3317 17.3517Z" fill="#F99019"/>
<path d="M66.5001 44L66.0001 45.5C67.5919 47.8888 67.5187 50.5372 67.5001 52C67.4815 53.4628 66.0002 60 66.0002 62C66.0002 62.637 61.2215 70.5004 61.5 71C63 71 71 67.5 73 60C73.6488 57.567 72.0186 50.5 70.5001 48.5C68.9815 46.5 68.0926 45.5926 66.5001 44Z" fill="#F38E14"/>
<path d="M45.8156 90.6096C29.8701 90.6096 17.1495 75.4803 16.3532 74.684C34.31 87.4245 56.1876 82.3974 57.7599 81.8505C76.0744 75.4803 85.6297 65.1286 89.6111 58.7583C88.0186 73.0914 72.0929 83.4431 68.1115 85.8319C66.7844 86.6282 59.3524 90.6096 45.8156 90.6096Z" fill="#573104"/>
<path d="M50.5926 70.7026C39.4446 69.11 35.9941 60.8817 34.6669 57.962C37.0558 60.3509 41.0372 61.1472 44.2223 61.1472C51.3889 65.9249 54.5732 65.9249 56.9628 66.7211C57.7591 65.9249 58.7146 64.8101 59.3517 63.536C60.7086 60.8223 61.7405 56.3695 61.7405 50.7955C61.7405 44.3757 62.5368 46.0178 59.3517 37.2587C68.9071 42.0364 68.1115 49 68.1115 56.3695C68.1115 62 63.3331 69.9063 62.5368 70.7026C61.7405 71.4988 56.9628 71.4988 50.5926 70.7026Z" fill="#2B7982"/>
<path d="M64.9881 55.8571C64.4176 62.1429 59.3693 70.5563 58.7114 71.2705C58.5 71.5 53.5 71 51.9998 70.5C53 70 56.0433 67.7571 56.4998 66.5C57.472 63.8222 60.4231 55.8571 60.4231 50.3571C60.4231 44.0225 60.9937 45.6429 58.7114 37C65.5582 41.7143 64.9881 48.7857 64.9881 55.8571Z" fill="#3C97A2"/>
<path d="M37.0558 54.7769C39.7101 53.4498 45.8149 49.2029 47.4082 46.0178C49.835 41.1667 49.7971 37.5241 49.7971 36.4624C49.7965 34.5914 48.5268 31.0596 47.0581 29.0042C46.5951 28.5001 46.1689 28.0566 45.8157 27.7033C46.2299 27.9795 46.6517 28.4353 47.0581 29.0042C49.0302 31.1514 51.67 34.3988 52.1859 36.4624C54.5748 41.2401 55.3695 42.8327 55.3703 46.0178C55.9011 48.1412 56.9628 52.2313 53.7777 55.4164C53.7777 56.2127 48.2037 62.7397 45.8149 62.7397C42.6298 60.5077 37.0558 59.5546 37.0558 54.7769Z" fill="#E15D23"/>
<path d="M45.8149 62.7397C44.2223 61.1472 38.524 56.9172 37.0558 53.9806C33.8706 47.6104 37.0558 40.4438 37.852 38.055C36.2595 38.8513 33.7122 42.5142 33.0751 47.6104C33.0751 52.7066 34.4015 57.1658 35.4632 58.7583C36.7903 59.5546 42.6297 63.536 45.8149 62.7397Z" fill="#F29116"/>
<path d="M43.426 68.3137C41.0372 69.11 32.2787 59.5546 29.8894 55.5732C28.2973 51.5918 29.2707 46.5907 29.8894 44.4252C31.4818 38.8513 35.4634 34.0736 37.0558 33.2773C38.3829 32.481 41.3557 30.8885 42.6298 30.8885C41.8335 31.6847 37.0581 36.4624 36.2607 38.055C31.483 45.2215 33.8718 52.3881 34.6674 55.5732C35.2776 58.0162 39.4446 64.3323 43.426 68.3137Z" fill="#C94929"/>
<path d="M20.3338 42.0366L18.7413 35.6664L19.5376 34.0738L21.1301 31.6849L23.519 28.4998V26.9073C23.519 26.111 34.6669 18.148 37.852 17.3517L46.9616 15.0743C47.1788 15.0025 47.3332 14.9628 47.4074 14.9628L46.9616 15.0743C45.3152 15.6183 40.0552 18.0065 38.6483 18.9444C37.5866 19.7407 35.3039 21.4925 34.6669 22.1296C29.5707 27.2258 27.7658 32.7467 27.5004 34.8701C26.5044 37.8579 26.1833 42.6781 25.9204 46.6255L25.9078 46.8143L22.7227 46.018C21.9264 44.16 21.2894 40.6033 21.9264 38.0552C20.6523 38.6922 20.5993 40.1786 20.3338 42.0366Z" fill="#DF5429"/>
<path d="M23.519 62.7397C20.3339 60.3509 17.1488 55.5732 13.9636 52.3881C12.6896 49.84 17.1492 40.1784 18.7417 35.6662L20.3344 41.2401C20.5999 40.1784 21.1302 37.2587 22.7233 34.0736C21.9264 37.2587 24.0504 43.8944 25.9084 46.8141C26.1738 47.6104 27.3417 50.477 29.8898 55.5732C34.349 65.7656 46.0809 72.5606 51.3894 74.684H49.0006C48.2043 75.4803 33.8707 70.7026 31.4818 69.11C30.6856 69.11 26.7042 65.1286 23.519 62.7397Z" fill="#F29116"/>
<path d="M13.1673 50.7962C13.9636 40.4446 14.7599 36.4632 16.3524 32.4818C18.1513 27.9846 30.7828 16.5125 37.852 16.5554C34.6669 17.3517 30.6855 21.3331 30.6855 21.3331L25.1123 26.9078C22.7242 29.2967 18.7413 37.2595 17.1487 42.0372C17.1487 42.0372 14.7599 53.0258 14.7599 52.3888L13.1673 50.7962Z" fill="#573104"/>
<path d="M15.5562 61.9434C9.1831 54.7769 10.4586 45.7075 11.5776 41.2401C10.7813 44.4252 13.9636 50.7955 17.9478 55.5732C22.1909 60.6613 29.093 65.9249 29.8892 66.7211C33.0744 69.11 41.04 73.0914 47.4102 74.684C57.7619 76.2765 63.3359 74.684 68.9099 72.2951C64.9256 75.4802 59.3517 77.8691 49 78.6654C46.4893 78.8585 43.1992 79.035 40.2409 78.6654C33.8678 77.8691 28.2939 74.841 25.1116 72.2951C19.5376 67.8359 18.7385 67.5174 15.5562 61.9434Z" fill="#2B7982"/>
<path d="M20.3393 17.3517C20.1813 17.524 20.0195 17.6986 19.8543 17.8753C7.66006 31.2561 9.99787 45.2728 10.7839 49.2029C11.5802 56.3695 24.8461 72.2951 29.8892 76.2765C26.7042 75.4803 16.3524 66.7211 16.3524 66.7211C16.3524 66.7211 6.00079 57.962 6.0006 49.2029C6.00046 42.8327 5.9503 39.8651 6.80104 36.4624C7.59732 33.2773 9.43112 29.5051 10.7825 27.7033C13.0421 24.6905 16.9654 20.9652 19.8543 17.8753C20.0135 17.7006 20.1751 17.5261 20.3393 17.3517Z" fill="#02545F"/>
<path d="M59.3515 46.8141C62.5367 56.3695 56.962 63.536 52.9814 65.9249C51.3889 65.394 47.0889 64.0138 45.8149 62.7397C45.8149 62.7397 52.7158 58.7583 54.5738 53.1843C55.3701 50.7955 54.5746 44.4252 53.7783 41.2401C52.185 35.6661 48.2044 30.0922 45.8155 27.7033C53.7783 33.2773 57.759 42.0364 59.3515 46.8141Z" fill="#86142F"/>
<path d="M83.7995 60.7077C82.2328 62.2154 77 66.5 71 67C75.5 62.5 79.1095 60.2923 80.5 58.5C88.3334 48.4026 88.7798 41.1194 87.5 36C86 30 82.0889 22.5205 80 18.5L83.0169 20.7538L83.8002 21.5077C85.3669 23.0154 88 26.5 90.067 32.0615C90.828 34.1092 93.1282 40.1027 92.5 44.5C91.8718 48.8973 90.9377 50.4057 90.5 51.5C89.5 54 86.7657 57.8532 83.7995 60.7077Z" fill="#0C1F4C"/>
<path d="M84.0364 54.7769C83.1219 56.1487 76.8699 62.7397 72.8885 65.1286C78.4625 57.962 81.4074 54.6782 83 47.5117C84.5926 40.3452 84 37.6206 84 33C84 30.7297 82.2402 23.4883 81.7402 22.4883L80 19.5L79 18L80 18.5L83 22C85.2598 25.8706 86 28.5 86.5 30C87 31.5 87.7143 34.5 88 36.5C88.5 40 88.2004 44.0486 87.5 46.5C86.5 50 85.629 52.3881 84.0364 54.7769Z" fill="#032C67"/>
<path d="M52.1859 34.0736C50.9119 32.1625 42.6306 23.7219 37.0566 21.3331C40.2417 22.1294 49.7963 25.633 52.9814 30.0922C56.8036 34.5513 57.4937 37.2587 57.7591 38.055C58.8208 40.4438 60.1472 46.0178 58.5554 46.8141C57.9184 44.266 55.6365 39.913 54.5748 38.055L52.1859 34.0736Z" fill="#0C2158"/>
<path d="M20.3337 41.2401C19.5375 45.7524 18.7412 55.7324 21.9263 59.5546" stroke="#E07E02" stroke-width="0.2"/>
<path d="M52.1851 30.0922C49.8647 27.1917 42.6297 22.1294 39.4446 19.7405C40.5063 19.7405 43.7445 21.4923 45.0186 22.1294C46.6111 22.9256 51.3702 25.2215 52.1851 26.1108C53 27 55.3702 28.4996 57.7591 31.6847L64.1293 40.4438L59.3516 37.2587C60.4133 39.913 62.3027 44.3182 62.5368 48.4067C63.0121 56.712 62.5 57 62 59C61.1172 62.5314 57.7591 65.9249 56.8878 66.784C56.1632 67.2938 54.0049 66.4366 52.9814 65.9249C53.5122 65.394 56.1665 61.9434 56.9628 60.3509C59.1289 56.0186 58.5553 52.3881 58.5553 46.8141C58.5553 43.629 57.7591 40.4438 56.9628 38.055C56.1665 35.6661 55.3702 34.0736 52.1851 30.0922Z" fill="#040C24"/>
<path d="M53 73C49 72.6 44.6667 69.8333 43 68.5C48.6 72.1 59 71.6667 63.5 71C64.6667 70.8333 69.7373 69.6314 72 68.5C77 66 83 62 83.5 62C82.7 62.8 76 68 71.5 70C70.3333 70.5 67.2 71.7 64 72.5C62.5 73 58 73.5 53 73Z" fill="#D3D3D3"/>
<path d="M66 12.5C64.4 11.3 59 8.66667 56.5 7.5C58 8 61 8.7 63 9.5C65.5 10.5 67 11.5 69.5 13C75.3333 16.5 81.4037 23.4565 82 24.5C84 28 85.0625 35 84 43.5C83 51.5 79 57.3333 77 60C75.8 61.6 73.5 65 71 67C69.125 68.5 65.5 70 64.5 70C67.5 68 69 64.5 70.5 61.5C71.9366 58.6268 72 56.5 72 55C72 53.2111 72 53 71.5 50.5C72 50 73.2 48.7 74 47.5C75 46 75.5577 44.2113 76.5 39.5C77 37 77 35 77 32.5C77 30 76.3007 26.1015 75.5 24.5C73 19.5 74 21.2 71 17C69.7873 15.3022 68 14 66 12.5Z" fill="#AE2C2C"/>
<path d="M48 30.5C50.6667 34.1667 53.3195 41.7219 52 47C50.5 53 42.5 58.5 41.5 58.5" stroke="#B93F09" stroke-width="0.2"/>
</svg>
