<svg width="18" height="24" viewBox="0 0 18 24" fill="none" xmlns="http://www.w3.org/2000/svg">
<path d="M9 1C6.87827 1 4.84344 1.88078 3.34315 3.44859C1.84285 5.01639 1 7.14279 1 9.36V9.96923C1.32389 14.5497 4.96221 18.2333 9 23C13.2159 18.0246 17 14.2564 17 9.36C17 7.14279 16.1571 5.01639 14.6569 3.44859C13.1566 1.88078 11.1217 1 9 1ZM9 5.34359C9.76146 5.34359 10.5058 5.57962 11.1389 6.02182C11.7719 6.46402 12.2652 7.09251 12.5564 7.82778C12.8475 8.56304 12.9234 9.37203 12.7745 10.1524C12.6256 10.9327 12.2584 11.6494 11.7196 12.2117C11.1808 12.7739 10.4945 13.1565 9.74756 13.3111C9.0006 13.4657 8.22655 13.3852 7.52336 13.0799C6.82017 12.7746 6.21944 12.2582 5.79717 11.5961C5.3749 10.9339 5.15008 10.1557 5.15115 9.36C5.15258 8.29426 5.55871 7.27269 6.28036 6.51963C7.002 5.76657 7.98016 5.34359 9 5.34359Z" stroke="#0049AA" stroke-width="1.04167" stroke-linecap="round" stroke-linejoin="round"/>
</svg>
